<?xml version="1.0" encoding="UTF-8" standalone="no"?>
<!-- Created with Inkscape (http://www.inkscape.org/) -->

<svg
   width="512"
   height="512"
   viewBox="0 0 512 512"
   version="1.1"
   id="svg5"
   inkscape:version="1.1.2 (0a00cf5339, 2022-02-04)"
   sodipodi:docname="logo3.svg"
   xmlns:inkscape="http://www.inkscape.org/namespaces/inkscape"
   xmlns:sodipodi="http://sodipodi.sourceforge.net/DTD/sodipodi-0.dtd"
   xmlns="http://www.w3.org/2000/svg"
   xmlns:svg="http://www.w3.org/2000/svg">
  <sodipodi:namedview
     id="namedview7"
     pagecolor="#505050"
     bordercolor="#eeeeee"
     borderopacity="1"
     inkscape:pageshadow="0"
     inkscape:pageopacity="0"
     inkscape:pagecheckerboard="0"
     inkscape:document-units="px"
     showgrid="true"
     inkscape:lockguides="false"
     inkscape:zoom="1.5117188"
     inkscape:cx="275.5142"
     inkscape:cy="265.59172"
     inkscape:window-width="1850"
     inkscape:window-height="1016"
     inkscape:window-x="0"
     inkscape:window-y="0"
     inkscape:window-maximized="1"
     inkscape:current-layer="layer1"
     objecttolerance="24.6">
    <inkscape:grid
       type="xygrid"
       id="grid9"
       empcolor="#fff53f"
       empopacity="0.2"
       color="#3fbcff"
       opacity="0.2"
       spacingx="16"
       spacingy="16"
       snapvisiblegridlinesonly="true"
       enabled="true"
       empspacing="4" />
  </sodipodi:namedview>
  <defs
     id="defs2">
    <inkscape:path-effect
       effect="mirror_symmetry"
       start_point="256.01652,0"
       end_point="256,498.98314"
       center_point="256.00826,249.49157"
       id="path-effect26281"
       is_visible="true"
       lpeversion="1.1"
       mode="free"
       discard_orig_path="false"
       fuse_paths="false"
       oposite_fuse="false"
       split_items="false"
       split_open="false" />
    <inkscape:path-effect
       effect="mirror_symmetry"
       start_point="-78.955078,104.21094"
       end_point="-78.955078,232.16406"
       center_point="-78.955078,168.1875"
       id="path-effect16854"
       is_visible="true"
       lpeversion="1.1"
       mode="vertical"
       discard_orig_path="false"
       fuse_paths="false"
       oposite_fuse="false"
       split_items="false"
       split_open="false" />
    <inkscape:path-effect
       effect="mirror_symmetry"
       start_point="-254.57363,56.500164"
       end_point="-70.775253,240.3973"
       center_point="-162.67444,148.44873"
       id="path-effect16654"
       is_visible="true"
       lpeversion="1.1"
       mode="free"
       discard_orig_path="false"
       fuse_paths="true"
       oposite_fuse="true"
       split_items="false"
       split_open="false" />
    <inkscape:path-effect
       effect="mirror_symmetry"
       start_point="256,0"
       end_point="256,498.98314"
       center_point="256.00826,249.49157"
       id="path-effect16084"
       is_visible="true"
       lpeversion="1.1"
       mode="free"
       discard_orig_path="false"
       fuse_paths="true"
       oposite_fuse="false"
       split_items="false"
       split_open="false" />
    <inkscape:path-effect
       effect="mirror_symmetry"
       start_point="256.01652,0"
       end_point="256.01652,511.99892"
       center_point="256.01652,255.99946"
       id="path-effect16076"
       is_visible="true"
       lpeversion="1.1"
       mode="free"
       discard_orig_path="false"
       fuse_paths="true"
       oposite_fuse="false"
       split_items="false"
       split_open="false" />
    <inkscape:path-effect
       effect="mirror_symmetry"
       start_point="256.01652,0"
       end_point="256.01652,511.99892"
       center_point="256.01652,255.99946"
       id="path-effect14246"
       is_visible="true"
       lpeversion="1.1"
       mode="free"
       discard_orig_path="false"
       fuse_paths="true"
       oposite_fuse="false"
       split_items="false"
       split_open="false" />
    <inkscape:path-effect
       effect="mirror_symmetry"
       start_point="276,-0.00048849085"
       end_point="276,176.00049"
       center_point="276,88"
       id="path-effect6905"
       is_visible="true"
       lpeversion="1.1"
       mode="vertical"
       discard_orig_path="false"
       fuse_paths="false"
       oposite_fuse="false"
       split_items="false"
       split_open="false" />
    <inkscape:path-effect
       effect="mirror_symmetry"
       start_point="0,88"
       end_point="512,88"
       center_point="276,43.999757"
       id="path-effect6149"
       is_visible="true"
       lpeversion="1.1"
       mode="horizontal"
       discard_orig_path="false"
       fuse_paths="true"
       oposite_fuse="true"
       split_items="false"
       split_open="false" />
    <clipPath
       clipPathUnits="userSpaceOnUse"
       id="clipPath28726">
      <path
         style="fill:#668000;stroke:none;stroke-width:1.04151px;stroke-linecap:butt;stroke-linejoin:miter;stroke-opacity:1"
         d="m 220,0 c 0,0 -2.82843,55.880383 0,65.084757 4,13.016951 92,0 89.76677,18.460402 C 307.80396,99.770138 198.32456,92.936087 192,99.796627 c -4,4.338983 0,17.355933 0,17.355933 l -8,17.35594 c 0,0 -1.7889,9.13607 0,13.01695 24,4.33898 52,21.69492 52,34.71187 4,34.71187 16,208.27122 16,208.27122 -36,0 -72,0 -132,0 V 0 Z"
         id="path28728"
         sodipodi:nodetypes="cssscccccccc" />
    </clipPath>
    <clipPath
       clipPathUnits="userSpaceOnUse"
       id="clipPath3082">
      <rect
         style="fill:#806600;stroke-width:2;stroke-miterlimit:4;stroke-dasharray:none"
         id="rect3084"
         width="20"
         height="16"
         x="224"
         y="148" />
    </clipPath>
    <clipPath
       clipPathUnits="userSpaceOnUse"
       id="clipPath6679">
      <path
         style="fill:#668000;fill-opacity:1;stroke:#000000;stroke-width:2;stroke-linecap:butt;stroke-linejoin:miter;stroke-miterlimit:4;stroke-dasharray:none;stroke-opacity:1"
         d="M 256.01652,482.71195 245,455.5933 V 390.50854 L 216,184.70755 c 0,0 -2.62667,-21.05968 -27.86218,-29.318 -16.39228,-5.36437 -27.65777,-9.553 -27.65777,-9.553 L 160,134.5085 h 64 v -17.35594 h -88 l 4,-17.355933 c 0,0 52,-8.677967 52,-35.627439 V 0 h 64.01652 c 229.49563,133.55975 0.0554,321.80137 0,482.71195 z"
         id="path6681"
         sodipodi:nodetypes="ccccsccccccsccc"
         transform="matrix(1,0,0,0.92187484,0,40)"
         clip-path="url(#clipPath28726)" />
    </clipPath>
  </defs>
  <g
     inkscape:label="Braces1"
     inkscape:groupmode="layer"
     id="layer1"
     style="display:inline">
    <path
       style="fill:#1b67c1;fill-opacity:1;stroke:#000000;stroke-width:1.87032;stroke-linecap:butt;stroke-linejoin:miter;stroke-miterlimit:4;stroke-dasharray:none;stroke-opacity:1"
       d="m 297.61719,-95.664062 c 0,0 -97.72384,-0.332537 -50.60547,149.316406 15.98836,50.779366 15.00575,72.320606 -45.59375,106.683596 60.5995,34.36299 61.58211,55.90422 45.59375,106.68359 -47.11837,149.64894 50.60547,149.31641 50.60547,149.31641 v -38 c 0,0 -54.22208,5.99921 -20.99024,-109.56641 14.05229,-48.86764 25.09556,-73.85406 -24.48633,-108.43359 49.58189,-34.57953 38.53862,-59.56595 24.48633,-108.433596 -33.23184,-115.565617 20.99024,-109.566406 20.99024,-109.566406 z m 255.35937,0 v 38 c 0,0 54.22012,-5.999211 20.98828,109.566406 -14.05229,48.867646 -25.09555,73.854066 24.48633,108.433596 -49.58188,34.57953 -38.53862,59.56595 -24.48633,108.43359 33.23184,115.56562 -20.98828,109.56641 -20.98828,109.56641 v 38 c 0,0 97.72189,0.33253 50.60352,-149.31641 -15.98836,-50.77937 -15.00576,-72.3206 45.59375,-106.68359 C 588.57432,125.97295 587.59172,104.43171 603.58008,53.652344 650.69845,-95.996599 552.97656,-95.664062 552.97656,-95.664062 Z"
       id="path2999"
       sodipodi:nodetypes="ccsccsc"
       inkscape:path-effect="#path-effect6905;#path-effect6149"
       inkscape:original-d="m 297.6163,-57.664083 v -38 c 0,0 -97.72218,-0.331961 -50.60381,149.316982 15.98836,50.779371 15.0059,72.320031 -45.59361,106.683021 h 50.72228 C 301.72305,125.75639 290.68006,100.76918 276.62777,51.901534 243.39593,-63.664083 297.6163,-57.664083 297.6163,-57.664083 Z"
       transform="matrix(1.1434818,0,0,1,-230.31882,95.664083)" />
  </g>
  <g
     inkscape:groupmode="layer"
     id="layer2"
     inkscape:label="Probe1"
     style="display:none"
     sodipodi:insensitive="true">
    <path
       style="fill:#b4c11b;fill-opacity:1;stroke:#000000;stroke-width:2;stroke-linecap:butt;stroke-linejoin:miter;stroke-miterlimit:4;stroke-dasharray:none;stroke-opacity:1"
       d="m 192.9043,0 c 0,0 1.011,45.24932 -0.6211,64.169922 C 190.65112,83.090524 134.41797,101 134.41797,101 l 0.52734,17 H 225 v 16 h -65 l 0.48047,11.83594 c 0,0 11.26592,4.18836 27.6582,9.55273 C 213.37418,163.64699 216,184.70703 216,184.70703 L 246,390 V 490 L 256.01562,511.99805 266.0332,490 V 390 l 30,-205.29297 c 0,0 2.62582,-21.06004 27.86133,-29.31836 16.39228,-5.36437 27.6582,-9.55273 27.6582,-9.55273 L 352.0332,134 h -65 v -16 h 90.05469 l 0.52734,-17 c 0,0 -56.23315,-17.909476 -57.86523,-36.830078 C 318.1179,45.24932 319.12891,0 319.12891,0 h -63.11329 z"
       id="path11725"
       sodipodi:nodetypes="ccccsccccccsccc"
       inkscape:path-effect="#path-effect14246"
       inkscape:original-d="M 256.01652,511.99892 246,490 V 390 L 216,184.70755 c 0,0 -2.62667,-21.05968 -27.86218,-29.318 -16.39228,-5.36437 -27.65777,-9.553 -27.65777,-9.553 L 160,134 h 65 v -16 h -90.054 l -0.52818,-17 c 0,0 56.23301,-17.91021 57.86509,-36.830812 C 193.91501,45.248586 192.90431,0 192.90431,0 h 63.11221 z" />
  </g>
  <g
     inkscape:groupmode="layer"
     id="g16080"
     inkscape:label="Probe2"
     style="display:inline">
    <path
       style="fill:#b4c11b;fill-opacity:1;stroke:#000000;stroke-width:2;stroke-linecap:butt;stroke-linejoin:miter;stroke-miterlimit:4;stroke-dasharray:none;stroke-opacity:1"
       d="m 192,0 v 64.169922 c 0,26.949472 -52,35.626953 -52,35.626953 l -4,17.355465 h 88 v 17.35547 h -64 l 0.48047,11.32813 c 0,0 11.26592,4.18836 27.6582,9.55273 C 213.37418,163.64699 216,184.70703 216,184.70703 l 28,205.80078 h 12 12 l 28,-205.80078 c 0,0 2.62582,-21.06004 27.86133,-29.31836 16.39228,-5.36437 27.6582,-9.55273 27.6582,-9.55273 L 352,134.50781 h -64 v -17.35547 h 88 l -4,-17.355465 c 0,0 -52,-8.677481 -52,-35.626953 V 0 h -64 z"
       id="path16078"
       sodipodi:nodetypes="cccsccccccsccc"
       inkscape:path-effect="#path-effect16084"
       inkscape:original-d="m 256.5,390.50854 c -4,0 -8.5,0 -12.5,0 L 216,184.70755 c 0,0 -2.62667,-21.05968 -27.86218,-29.318 -16.39228,-5.36437 -27.65777,-9.553 -27.65777,-9.553 L 160,134.5085 h 64 v -17.35594 h -88 l 4,-17.355933 c 0,0 52,-8.677967 52,-35.627439 V 0 h 64.00826 z"
       transform="matrix(1,0,0,0.92187484,0,40)" />
    <path
       style="display:inline;fill:#d4aa00;stroke:#000000;stroke-width:2;stroke-linecap:butt;stroke-linejoin:miter;stroke-miterlimit:4;stroke-dasharray:none;stroke-opacity:1"
       d="m 224,148 h 64 v 16 h -64 z"
       id="path1823" />
  </g>
  <g
     inkscape:groupmode="layer"
     id="g26277"
     inkscape:label="Probe2 shade"
     style="display:inline">
    <path
       style="fill:#668000;fill-opacity:1;stroke:#000000;stroke-width:2;stroke-linecap:butt;stroke-linejoin:miter;stroke-miterlimit:4;stroke-dasharray:none;stroke-opacity:1"
       d="M 256.01652,482.71195 244,455.5933 V 390.50854 L 216,184.70755 c 0,0 -2.62667,-21.05968 -27.86218,-29.318 -16.39228,-5.36437 -27.65777,-9.553 -27.65777,-9.553 L 160,134.5085 h 64 v -17.35594 h -88 l 4,-17.355933 c 0,0 52,-8.677967 52,-35.627439 V 0 h 64.01652 c 229.49563,133.55975 0.0554,321.80137 0,482.71195 z"
       id="path26273"
       sodipodi:nodetypes="ccccsccccccsccc"
       transform="matrix(1,0,0,0.92187484,0,40)"
       clip-path="url(#clipPath28726)" />
  </g>
  <g
     inkscape:groupmode="layer"
     id="layer5"
     inkscape:label="Probe2 tip"
     style="display:inline">
    <path
       style="display:inline;fill:#d4aa00;fill-opacity:1;stroke:#000000;stroke-width:2;stroke-linecap:butt;stroke-linejoin:miter;stroke-miterlimit:4;stroke-dasharray:none;stroke-opacity:1"
       d="m 244,400 v 16 l 12,24 12,-24 v -16 z"
       id="path6520"
       sodipodi:nodetypes="cccccc" />
    <path
       style="fill:#806600;stroke:none;stroke-width:1px;stroke-linecap:butt;stroke-linejoin:miter;stroke-opacity:1"
       d="m 252,400 h -8 v 16 l 12,21.8 -4,-21.8 z"
       id="path12368"
       sodipodi:nodetypes="cccccc" />
  </g>
  <g
     inkscape:groupmode="layer"
     id="layer4"
     inkscape:label="probe2 clip"
     style="display:inline">
    <path
       style="display:inline;fill:#806600;stroke:#000000;stroke-width:2;stroke-linecap:butt;stroke-linejoin:miter;stroke-miterlimit:4;stroke-dasharray:none;stroke-opacity:1"
       d="m 224,148 h 64 v 16 h -64 z"
       id="path3079"
       clip-path="url(#clipPath3082)" />
    <path
       style="display:inline;fill:#806600;fill-opacity:1;stroke:#000000;stroke-width:2;stroke-linecap:butt;stroke-linejoin:miter;stroke-miterlimit:4;stroke-dasharray:none;stroke-opacity:1"
       d="m 244,400 v 60 l 12,24 12,-24 v -60 z"
       id="path6676"
       clip-path="url(#clipPath6679)" />
    <path
       style="display:inline;fill:none;fill-opacity:1;stroke:#000000;stroke-width:2;stroke-linecap:butt;stroke-linejoin:miter;stroke-miterlimit:4;stroke-dasharray:none;stroke-opacity:1"
       d="m 244,400 v 16 l 12,24 12,-24 v -16 z"
       id="path6989"
       sodipodi:nodetypes="cccccc" />
  </g>
  <g
     inkscape:groupmode="layer"
     id="layer3"
     inkscape:label="Braces2"
     style="display:none"
     sodipodi:insensitive="true">
    <path
       style="fill:#1b61c1;fill-opacity:1;stroke:#000000;stroke-width:2;stroke-miterlimit:4;stroke-dasharray:none;stroke-opacity:1"
       id="rect16440"
       width="133.15245"
       height="36.206718"
       x="-212.10736"
       y="104.2104"
       transform="matrix(1.0496047,-1.1338166,1.0501687,1.1332077,115.16722,0.38739821)"
       inkscape:path-effect="#path-effect16654;#path-effect16854"
       d="m -206.88867,104.21094 -0.0684,127.93359 36.20508,0.0195 0.0508,-91.74609 h 91.746092 v -36.20703 z m 236.671496,236.79867 -127.933608,-3.7e-4 -8.1e-5,-36.20508 91.7461041,-0.002 0.049286,-91.74607 36.2070249,0.0195 z"
       sodipodi:type="rect"
       inkscape:transform-center-x="-88.053796"
       inkscape:transform-center-y="52.504349" />
  </g>
  <g
     inkscape:groupmode="layer"
     id="g16072"
     inkscape:label="Probe-tilt"
     style="display:none">
    <path
       style="fill:#b4c11b;fill-opacity:1;stroke:#000000;stroke-width:2;stroke-linecap:butt;stroke-linejoin:miter;stroke-miterlimit:4;stroke-dasharray:none;stroke-opacity:1"
       d="m 192.9043,0 c 0,0 1.011,45.24932 -0.6211,64.169922 C 190.65112,83.090524 134.41797,101 134.41797,101 l 0.52734,17 H 225 v 16 h -65 l 0.48047,11.83594 c 0,0 11.26592,4.18836 27.6582,9.55273 C 213.37418,163.64699 216,184.70703 216,184.70703 L 246,390 V 490 L 256.01562,511.99805 266.0332,490 V 390 l 30,-205.29297 c 0,0 2.62582,-21.06004 27.86133,-29.31836 16.39228,-5.36437 27.6582,-9.55273 27.6582,-9.55273 L 352.0332,134 h -65 v -16 h 90.05469 l 0.52734,-17 c 0,0 -56.23315,-17.909476 -57.86523,-36.830078 C 318.1179,45.24932 319.12891,0 319.12891,0 h -63.11329 z"
       id="path16070"
       sodipodi:nodetypes="ccccsccccccsccc"
       inkscape:path-effect="#path-effect16076"
       inkscape:original-d="M 256.01652,511.99892 246,490 V 390 L 216,184.70755 c 0,0 -2.62667,-21.05968 -27.86218,-29.318 -16.39228,-5.36437 -27.65777,-9.553 -27.65777,-9.553 L 160,134 h 65 v -16 h -90.054 l -0.52818,-17 c 0,0 56.23301,-17.91021 57.86509,-36.830812 C 193.91501,45.248586 192.90431,0 192.90431,0 h 63.11221 z"
       transform="rotate(11.281496,242.45759,239.0849)" />
  </g>
</svg>
